<?xml version="1.0" encoding="UTF-8"?>
<svg id="Livello_1" data-name="Livello 1" xmlns="http://www.w3.org/2000/svg" viewBox="0 0 1698.323 506.601">
  <path fill="#fab53b" d="m517.783,0l-228.715,235.26,43.013-71.874L351.762,0H122.74L0,104.556h122.738v263.591s-74.812,138.453-74.812,138.453h229.694l74.142-138.453L634.612,104.556h38.723s-156.32,290.923-215.833,402.044h229.039l104.982-194.895-123.354-23.624,305.8-.655,55.771-104.343h-169.309l28.875-54.462-125.682-24.065h276.056l10.395,23.394-9.177,17.735h157.328l103.077-71.758-420.635,432.673h229.023l350.868-360.915-29.968,230.985,125.556,25.373h-261.433l-111.35,104.556h463.112L1698.323,0H517.783Z"/>
</svg>